<?xml version="1.0" encoding="utf-8"?>
<!-- Generator: Adobe Illustrator 21.0.0, SVG Export Plug-In . SVG Version: 6.00 Build 0)  -->
<svg version="1.1" id="Layer_1" xmlns="http://www.w3.org/2000/svg" xmlns:xlink="http://www.w3.org/1999/xlink" x="0px" y="0px"
	 viewBox="0 0 20 20" style="enable-background:new 0 0 20 20;" xml:space="preserve">
<style type="text/css">
	.st0{fill:#343138;}
	.st1{fill:#FFFFFF;}
</style>
<g>
	<circle class="st0" cx="10" cy="10" r="10"/>
	<g>
		<path id="LinkedIn" class="st1" d="M15.7,10.7v3.9h-2.3V11c0-0.9-0.3-1.5-1.1-1.5c-0.6,0-1,0.4-1.2,0.8c-0.1,0.1-0.1,0.3-0.1,0.6
			v3.8H8.8c0,0,0-6.2,0-6.8H11v1c0,0,0,0,0,0h0v0c0.3-0.5,0.8-1.1,2-1.1C14.6,7.7,15.7,8.6,15.7,10.7z M6.4,4.5
			c-0.8,0-1.3,0.5-1.3,1.2c0,0.7,0.5,1.2,1.3,1.2h0c0.8,0,1.3-0.5,1.3-1.2C7.7,5.1,7.2,4.5,6.4,4.5z M5.2,14.7h2.3V7.8H5.2V14.7z"/>
	</g>
</g>
</svg>
