<?xml version="1.0" encoding="utf-8"?>
<!-- Generator: Adobe Illustrator 21.0.0, SVG Export Plug-In . SVG Version: 6.00 Build 0)  -->
<svg version="1.1" id="Layer_1" xmlns="http://www.w3.org/2000/svg" xmlns:xlink="http://www.w3.org/1999/xlink" x="0px" y="0px"
	 viewBox="0 0 12.4 10" style="enable-background:new 0 0 12.4 10;" xml:space="preserve">
<style type="text/css">
	.st0{fill:#343138;}
</style>
<g>
	<path class="st0" d="M10.4,0.1c1.2,0,1.8,0.7,1.8,2c0,0.1,0,0.2,0,0.3C12.1,3.5,11.3,5,9.7,6.9c-1.6,2-3,3-4.2,3
		c-0.7,0-1.3-0.6-1.8-1.8L3.3,6.4L2.8,4.7C2.4,3.5,2,2.9,1.6,2.9c-0.1,0-0.4,0.2-0.9,0.5L0.1,2.8L1,2l0.9-0.7c0.8-0.6,1.4-1,1.8-1
		c0.1,0,0.1,0,0.2,0c0.8,0,1.4,0.6,1.6,1.8c0.1,0.7,0.2,1.2,0.3,1.7c0.1,0.4,0.1,0.7,0.2,0.9c0.3,1.1,0.6,1.7,0.9,1.7
		C7,6.4,7.4,6,7.9,5.3c0.5-0.8,0.8-1.3,0.8-1.7c0-0.1,0-0.1,0-0.2c0-0.5-0.3-0.7-0.8-0.7C7.6,2.6,7.3,2.7,7,2.8
		C7.6,1,8.7,0.1,10.3,0.1C10.3,0.1,10.4,0.1,10.4,0.1z"/>
</g>
</svg>
