<?xml version="1.0" encoding="utf-8"?>
<!-- Generator: Adobe Illustrator 21.0.0, SVG Export Plug-In . SVG Version: 6.00 Build 0)  -->
<svg version="1.1" id="Layer_1" xmlns="http://www.w3.org/2000/svg" xmlns:xlink="http://www.w3.org/1999/xlink" x="0px" y="0px"
	 viewBox="0 0 11.5 8.4" style="enable-background:new 0 0 11.5 8.4;" xml:space="preserve">
<style type="text/css">
	.st0{fill:#343138;}
	.st1{fill:#FFFFFF;stroke:#FFFFFF;stroke-width:0.25;stroke-miterlimit:10;}
</style>
<path class="st0" d="M11,0.1H0.5C0.2,0.1,0,0.3,0,0.6v7.1C0,8,0.2,8.2,0.5,8.2H11c0.3,0,0.5-0.2,0.5-0.5V0.6
	C11.5,0.3,11.3,0.1,11,0.1z M10.3,6.6c0.1,0.1,0.1,0.3,0,0.4s-0.1,0.1-0.2,0.1C10,7.1,10,7.1,9.9,7L7.1,4.4L6,5.5
	C5.9,5.6,5.9,5.6,5.8,5.6s-0.1,0-0.2-0.1L4.4,4.4L1.6,7.1c0,0-0.1,0-0.2,0S1.3,7.1,1.2,7s-0.1-0.3,0-0.4L4,4L1.2,1.3
	C1.1,1.2,1.1,1,1.2,0.9s0.3-0.1,0.4,0l3,2.9l1.1,1.1l1.1-1.1l0,0l0,0l3-2.9c0.1-0.1,0.3-0.1,0.4,0c0.1,0.1,0.1,0.3,0,0.4L7.5,4
	L10.3,6.6z"/>
<path class="st1" d="M10.3,6.6c0.1,0.1,0.1,0.3,0,0.4s-0.1,0.1-0.2,0.1C10,7.1,10,7.1,9.9,7L7.1,4.4L6,5.5C5.9,5.6,5.9,5.6,5.8,5.6
	s-0.1,0-0.2-0.1L4.4,4.4L1.6,7.1c0,0-0.1,0-0.2,0S1.3,7.1,1.2,7s-0.1-0.3,0-0.4L4,4L1.2,1.3C1.1,1.2,1.1,1,1.2,0.9s0.3-0.1,0.4,0
	l3,2.9l1.1,1.1l1.1-1.1l0,0l0,0l3-2.9c0.1-0.1,0.3-0.1,0.4,0c0.1,0.1,0.1,0.3,0,0.4L7.5,4L10.3,6.6z"/>
</svg>
