<?xml version="1.0" encoding="utf-8"?>
<!-- Generator: Adobe Illustrator 21.0.0, SVG Export Plug-In . SVG Version: 6.00 Build 0)  -->
<svg version="1.1" id="Layer_1" xmlns="http://www.w3.org/2000/svg" xmlns:xlink="http://www.w3.org/1999/xlink" x="0px" y="0px"
	 viewBox="0 0 20 20" style="enable-background:new 0 0 20 20;" xml:space="preserve">
<style type="text/css">
	.st0{fill:#343138;}
	.st1{fill:#FFFFFF;stroke:#343138;stroke-width:0.25;stroke-miterlimit:10;}
</style>
<g>
	<circle class="st0" cx="10" cy="10" r="10"/>
	<path class="st1" d="M15.2,5.9H4.8c-0.3,0-0.5,0.2-0.5,0.5v7.1c0,0.3,0.2,0.5,0.5,0.5h10.4c0.3,0,0.5-0.2,0.5-0.5V6.4
		C15.7,6.1,15.5,5.9,15.2,5.9z M14.5,12.4c0.1,0.1,0.1,0.3,0,0.4c-0.1,0.1-0.1,0.1-0.2,0.1c-0.1,0-0.1,0-0.2-0.1l-2.8-2.7l-1.1,1.1
		c-0.1,0-0.1,0.1-0.2,0.1s-0.1,0-0.2-0.1l-1.1-1.1l-2.8,2.7C5.8,12.9,5.8,13,5.7,13c-0.1,0-0.1,0-0.2-0.1s-0.1-0.3,0-0.4l2.8-2.6
		L5.5,7.1C5.4,7,5.3,6.8,5.5,6.7c0.1-0.1,0.3-0.1,0.4,0l3,2.9l1.1,1.1l1.1-1.1l0,0l0,0l3-2.9c0.1-0.1,0.3-0.1,0.4,0
		c0.1,0.1,0.1,0.3,0,0.4l-2.8,2.7L14.5,12.4z"/>
</g>
</svg>
