<?xml version="1.0" encoding="utf-8"?>
<!-- Generator: Adobe Illustrator 21.0.0, SVG Export Plug-In . SVG Version: 6.00 Build 0)  -->
<svg version="1.1" id="Layer_1" xmlns="http://www.w3.org/2000/svg" xmlns:xlink="http://www.w3.org/1999/xlink" x="0px" y="0px"
	 viewBox="0 0 20 20" style="enable-background:new 0 0 20 20;" xml:space="preserve">
<style type="text/css">
	.st0{fill:#343138;}
	.st1{fill:#FFFFFF;}
</style>
<g>
	<circle class="st0" cx="10" cy="10" r="10"/>
	<g>
		<path class="st1" d="M14.3,5.8c1.2,0,1.8,0.7,1.8,2c0,0.1,0,0.2,0,0.3c-0.1,1.1-0.9,2.6-2.5,4.5c-1.6,2-3,3-4.2,3
			c-0.7,0-1.3-0.6-1.8-1.8L7.1,12l-0.5-1.7C6.3,9.2,5.9,8.5,5.5,8.5c-0.1,0-0.4,0.2-0.9,0.5L4,8.4l0.9-0.7l0.9-0.7
			c0.8-0.6,1.4-1,1.8-1c0.1,0,0.1,0,0.2,0c0.8,0,1.4,0.6,1.6,1.8C9.4,8.4,9.5,9,9.5,9.4c0.1,0.4,0.1,0.7,0.2,0.9
			c0.3,1.1,0.6,1.7,0.9,1.7c0.2,0,0.6-0.4,1.1-1.1c0.5-0.8,0.8-1.3,0.8-1.7c0-0.1,0-0.1,0-0.2c0-0.5-0.3-0.7-0.8-0.7
			c-0.3,0-0.6,0.1-0.9,0.2c0.6-1.8,1.7-2.6,3.3-2.6C14.2,5.8,14.2,5.8,14.3,5.8z"/>
	</g>
</g>
</svg>
