<?xml version="1.0" encoding="utf-8"?>
<!-- Generator: Adobe Illustrator 21.0.0, SVG Export Plug-In . SVG Version: 6.00 Build 0)  -->
<svg version="1.1" id="Layer_1" xmlns="http://www.w3.org/2000/svg" xmlns:xlink="http://www.w3.org/1999/xlink" x="0px" y="0px"
	 viewBox="0 0 6.8 11.8" style="enable-background:new 0 0 6.8 11.8;" xml:space="preserve">
<style type="text/css">
	.st0{fill:#343138;}
</style>
<path class="st0" d="M0,0.4v10.9c0,0.2,0.2,0.4,0.4,0.4h5.9c0.2,0,0.4-0.2,0.4-0.4V0.4C6.8,0.2,6.6,0,6.4,0H0.4C0.2,0,0,0.2,0,0.4z
	 M3.4,11.3c-0.4,0-0.7-0.3-0.7-0.7c0-0.4,0.3-0.7,0.7-0.7s0.7,0.3,0.7,0.7C4.1,11,3.8,11.3,3.4,11.3z M6,9.4H0.9V1H6V9.4z"/>
</svg>
