<?xml version="1.0" encoding="utf-8"?>
<!-- Generator: Adobe Illustrator 21.0.0, SVG Export Plug-In . SVG Version: 6.00 Build 0)  -->
<svg version="1.1" id="Layer_1" xmlns="http://www.w3.org/2000/svg" xmlns:xlink="http://www.w3.org/1999/xlink" x="0px" y="0px"
	 viewBox="0 0 20 20" style="enable-background:new 0 0 20 20;" xml:space="preserve">
<style type="text/css">
	.st0{fill:#343138;}
	.st1{fill:#FFFFFF;}
</style>
<g>
	<circle class="st0" cx="10" cy="10" r="10"/>
	<path class="st1" d="M6.6,4.6v10.9c0,0.2,0.2,0.4,0.4,0.4H13c0.2,0,0.4-0.2,0.4-0.4V4.6c0-0.2-0.2-0.4-0.4-0.4H7
		C6.8,4.1,6.6,4.3,6.6,4.6z M10,15.4c-0.4,0-0.7-0.3-0.7-0.7c0-0.4,0.3-0.7,0.7-0.7s0.7,0.3,0.7,0.7C10.7,15.1,10.4,15.4,10,15.4z
		 M12.5,13.6H7.5V5.1h5.1V13.6z"/>
</g>
</svg>
