<?xml version="1.0" encoding="utf-8"?>
<!-- Generator: Adobe Illustrator 21.0.0, SVG Export Plug-In . SVG Version: 6.00 Build 0)  -->
<svg version="1.1" id="Layer_1" xmlns="http://www.w3.org/2000/svg" xmlns:xlink="http://www.w3.org/1999/xlink" x="0px" y="0px"
	 viewBox="0 0 10.6 10.1" style="enable-background:new 0 0 10.6 10.1;" xml:space="preserve">
<style type="text/css">
	.st0{fill:#343138;}
</style>
<g>
	<path id="LinkedIn_1_" class="st0" d="M10.6,6.2v3.9H8.3V6.5c0-0.9-0.3-1.5-1.1-1.5c-0.6,0-1,0.4-1.2,0.8C5.9,5.9,5.9,6.1,5.9,6.3
		v3.8H3.7c0,0,0-6.2,0-6.8h2.3v1c0,0,0,0,0,0h0v0c0.3-0.5,0.8-1.1,2-1.1C9.5,3.1,10.6,4.1,10.6,6.2z M1.3,0C0.5,0,0,0.5,0,1.2
		c0,0.7,0.5,1.2,1.3,1.2h0c0.8,0,1.3-0.5,1.3-1.2C2.5,0.5,2.1,0,1.3,0z M0.1,10.1h2.3V3.3H0.1V10.1z"/>
</g>
</svg>
